<?xml version="1.0" encoding="utf-8"?>
<!-- Generator: Adobe Illustrator 19.0.0, SVG Export Plug-In . SVG Version: 6.00 Build 0)  -->
<svg version="1.1" xmlns="http://www.w3.org/2000/svg" xmlns:xlink="http://www.w3.org/1999/xlink" x="0px" y="0px"
	 viewBox="0 0 100 100" style="enable-background:new 0 0 100 100;" xml:space="preserve">
<style type="text/css">
	.st0{display:none;}
	.st1{display:inline;}
</style>
<g id="Layer_1" class="st0">
	<g class="st1">
		<path d="M41.7,10.4c-1.1,0-2.1,0.4-2.9,1.2L17,33.3H-0.1c-1.1,0-2.1,0.4-2.9,1.2s-1.2,1.8-1.2,2.9v25c0,1.1,0.4,2.1,1.2,2.9
			c0.8,0.8,1.8,1.2,2.9,1.2H17l21.7,21.7c0.8,0.8,1.8,1.2,2.9,1.2s2.1-0.4,2.9-1.2c0.8-0.8,1.2-1.8,1.2-2.9V14.5
			c0-1.1-0.4-2.1-1.2-2.9C43.8,10.8,42.8,10.4,41.7,10.4L41.7,10.4z M41.7,10.4"/>
		<path d="M68.1,59.2c1.8-2.8,2.8-5.9,2.8-9.2c0-3.3-0.9-6.4-2.8-9.3c-1.8-2.9-4.3-4.9-7.3-6.1c-0.4-0.2-1-0.3-1.6-0.3
			c-1.1,0-2.1,0.4-2.9,1.2c-0.8,0.8-1.2,1.8-1.2,3c0,0.9,0.3,1.7,0.8,2.3c0.5,0.6,1.2,1.2,1.9,1.6c0.7,0.5,1.5,1,2.2,1.5
			c0.7,0.5,1.4,1.3,1.9,2.3c0.5,1,0.8,2.2,0.8,3.7c0,1.5-0.3,2.7-0.8,3.7c-0.5,1-1.2,1.8-1.9,2.3c-0.7,0.5-1.5,1-2.2,1.5
			c-0.7,0.5-1.4,1-1.9,1.6c-0.5,0.6-0.8,1.4-0.8,2.3c0,1.2,0.4,2.2,1.2,3c0.8,0.8,1.8,1.2,2.9,1.2c0.6,0,1.2-0.1,1.6-0.3
			C63.8,64.1,66.2,62.1,68.1,59.2L68.1,59.2z M68.1,59.2"/>
		<path d="M82,68.4c3.7-5.6,5.5-11.8,5.5-18.4c0-6.6-1.8-12.8-5.5-18.4c-3.7-5.6-8.6-9.7-14.7-12.3c-0.6-0.2-1.1-0.3-1.7-0.3
			c-1.1,0-2.1,0.4-2.9,1.2c-0.8,0.8-1.2,1.8-1.2,2.9c0,1.7,0.8,3,2.5,3.8c2.4,1.3,4.1,2.2,5,2.9c3.2,2.3,5.7,5.3,7.5,8.8
			c1.8,3.5,2.7,7.3,2.7,11.3s-0.9,7.8-2.7,11.3c-1.8,3.5-4.3,6.5-7.5,8.8c-0.9,0.7-2.5,1.6-5,2.9c-1.7,0.9-2.5,2.2-2.5,3.8
			c0,1.1,0.4,2.1,1.2,2.9c0.8,0.8,1.8,1.2,3,1.2c0.5,0,1.1-0.1,1.6-0.3C73.4,78.1,78.3,74,82,68.4L82,68.4z M82,68.4"/>
		<path d="M96,22.5C90.4,14.1,83.1,7.9,73.9,4c-0.6-0.2-1.1-0.3-1.7-0.3c-1.1,0-2.1,0.4-2.9,1.2c-0.8,0.8-1.2,1.8-1.2,2.9
			c0,1.6,0.8,2.8,2.5,3.8c0.3,0.2,0.8,0.4,1.5,0.7c0.7,0.3,1.2,0.5,1.5,0.7c2,1.1,3.8,2.2,5.3,3.3c5.3,4,9.5,8.9,12.5,14.8
			c3,5.9,4.5,12.2,4.5,18.8c0,6.7-1.5,12.9-4.5,18.8c-3,5.9-7.2,10.8-12.5,14.8c-1.6,1.1-3.3,2.2-5.3,3.3c-0.3,0.2-0.8,0.4-1.5,0.7
			c-0.7,0.3-1.2,0.5-1.5,0.7c-1.7,1-2.5,2.3-2.5,3.8c0,1.1,0.4,2.1,1.2,2.9c0.8,0.8,1.8,1.2,2.9,1.2c0.6,0,1.1-0.1,1.7-0.3
			c9.2-4,16.5-10.1,22-18.5c5.5-8.4,8.3-17.5,8.3-27.5C104.2,40,101.5,30.8,96,22.5L96,22.5z M96,22.5"/>
	</g>
</g>
<g id="Layer_2">
	<path d="M85.4,85.4L85.4,85.4c-3.7,3.7-9.7,3.7-13.4,0L14.6,28.1c-3.7-3.7-3.7-9.7,0-13.4l0,0c3.7-3.7,9.7-3.7,13.4,0l57.3,57.3
		C89.1,75.6,89.1,81.6,85.4,85.4z"/>
	<path d="M14.6,85.4L14.6,85.4c-3.7-3.7-3.7-9.7,0-13.4l57.3-57.3c3.7-3.7,9.7-3.7,13.4,0l0,0c3.7,3.7,3.7,9.7,0,13.4L28.1,85.4
		C24.4,89.1,18.4,89.1,14.6,85.4z"/>
</g>
</svg>
