<?xml version="1.0" encoding="utf-8"?>
<!-- Generator: Adobe Illustrator 19.0.0, SVG Export Plug-In . SVG Version: 6.00 Build 0)  -->
<svg version="1.1" id="Layer_1" xmlns="http://www.w3.org/2000/svg" xmlns:xlink="http://www.w3.org/1999/xlink" x="0px" y="0px"
	 viewBox="-116.9 335.7 350.5 120.3" style="enable-background:new -116.9 335.7 350.5 120.3;" xml:space="preserve">
<style type="text/css">
	.st0{display:none;}
	.st1{display:inline;}
	.st2{fill:#FF5757;}
	.st3{fill:#404041;}
	.st4{fill:none;}
	.st5{fill:none;stroke:#404041;stroke-width:7;stroke-miterlimit:10;}
	.st6{fill:#58595B;stroke:#404041;stroke-width:4;stroke-linecap:round;stroke-miterlimit:10;}
</style>
<g id="XMLID_1_" class="st0">
	<g id="XMLID_36_" class="st1">
		<path class="st2" d="M231.6,414.2c1.1-4.4,1.7-9.1,1.7-13.8c0-30.7-24.9-55.7-55.7-55.7c-22.8,0-42.3,13.7-51,33.3
			c-21.5,0.1-38.8,17.5-38.8,39c0,21.6,17.5,39,39,39h90.9c12.8,0,23.2-10.4,23.2-23.2C241,425.2,237.3,418.4,231.6,414.2z
			 M129,440.2c-12.8,0-23.1-10.4-23.1-23.1c0-12.8,10.4-23.1,23.1-23.1c12.8,0,23.1,10.4,23.1,23.1
			C152.1,429.8,141.7,440.2,129,440.2z"/>
	</g>
	<g id="XMLID_361_" class="st1">
		<path id="XMLID_140_" class="st3" d="M129,443.7c-14.7,0-26.6-12-26.6-26.6c0-14.7,12-26.6,26.6-26.6c14.7,0,26.6,12,26.6,26.6
			C155.6,431.7,143.6,443.7,129,443.7z M129,397.4c-10.8,0-19.6,8.8-19.6,19.6c0,10.8,8.8,19.6,19.6,19.6c10.8,0,19.6-8.8,19.6-19.6
			C148.6,406.2,139.8,397.4,129,397.4z"/>
	</g>
	<g id="XMLID_364_" class="st1">
		<line id="XMLID_137_" class="st4" x1="164.5" y1="398" x2="217" y2="398"/>
		<path id="XMLID_138_" class="st3" d="M217,400h-52.5c-1.1,0-2-0.9-2-2c0-1.1,0.9-2,2-2H217c1.1,0,2,0.9,2,2
			C219,399.1,218.1,400,217,400z"/>
	</g>
	<g id="XMLID_365_" class="st1">
		<line id="XMLID_133_" class="st4" x1="180" y1="394.1" x2="180" y2="401.8"/>
		<path id="XMLID_136_" class="st3" d="M180,403.8c-1.1,0-2-0.9-2-2v-7.7c0-1.1,0.9-2,2-2s2,0.9,2,2v7.7
			C182,402.9,181.1,403.8,180,403.8z"/>
	</g>
	<g id="XMLID_362_" class="st1">
		<path class="st3" d="M208.4,438.5h-35c-2.8,0-5-2.2-5-5v-17.3c0-2.8,2.2-5,5-5h35c2.8,0,5,2.2,5,5v17.3
			C213.4,436.2,211.1,438.5,208.4,438.5z"/>
	</g>
	<g id="XMLID_376_" class="st1">
		<g id="XMLID_13_">
			<path class="st3" d="M-113.8,411.3h18.7c5.2,0,9.2,1.5,11.9,4.1c2.3,2.3,3.5,5.5,3.5,9.3v0.1c0,6.6-3.6,10.7-8.8,12.7l10,14.6
				H-89l-8.8-13.1h-0.1h-6.9v13.1h-9C-113.8,452.1-113.8,411.3-113.8,411.3z M-95.7,431.1c4.4,0,6.9-2.3,6.9-5.8v-0.1
				c0-3.9-2.7-5.8-7.1-5.8h-8.9v11.7C-104.8,431.1-95.7,431.1-95.7,431.1z"/>
		</g>
		<g id="XMLID_16_">
			<path class="st3" d="M-57.6,411h8.3l17.5,41.1h-9.4l-3.7-9.2h-17.3l-3.7,9.2h-9.2L-57.6,411z M-48.1,435l-5.4-13.2L-59,435H-48.1
				z"/>
		</g>
		<g id="XMLID_19_">
			<path class="st3" d="M-25.5,411.3h15.9c12.8,0,21.7,8.8,21.7,20.3v0.1c0,11.5-8.9,20.4-21.7,20.4h-15.9V411.3z M-9.5,444
				c7.4,0,12.3-5,12.3-12.2v-0.1c0-7.2-5-12.3-12.3-12.3h-6.9V444H-9.5z"/>
		</g>
		<g id="XMLID_24_">
			<path class="st3" d="M20.6,411.3h9v40.8h-9V411.3z"/>
		</g>
		<g id="XMLID_26_">
			<path class="st3" d="M37.9,431.8v-0.1c0-11.6,9.2-21.1,21.8-21.1s21.6,9.4,21.6,21v0.1c0,11.6-9.2,21.1-21.8,21.1
				S37.9,443.4,37.9,431.8z M72,431.8v-0.1c0-7-5.1-12.8-12.4-12.8s-12.3,5.7-12.3,12.7v0.1c0,7,5.1,12.8,12.4,12.8
				S72,438.8,72,431.8z"/>
		</g>
	</g>
	<g id="XMLID_4_" class="st1">
		<g id="XMLID_3_">
			<path class="st3" d="M-113.2,349h12.8v46.4h28.9V407h-41.7V349z"/>
		</g>
		<g id="XMLID_6_">
			<path class="st3" d="M-42.1,348.6h11.8L-5.5,407h-13.3l-5.3-13h-24.5l-5.3,13h-13L-42.1,348.6z M-28.7,382.7l-7.7-18.8l-7.7,18.8
				H-28.7z"/>
		</g>
		<g id="XMLID_9_">
			<path class="st3" d="M3.5,349h11.8l27.2,35.7V349H55v58H44.2L16,370.1v36.8H3.4L3.5,349L3.5,349z"/>
		</g>
	</g>
	<g id="XMLID_10_" class="st1">
		<path id="XMLID_135_" class="st3" d="M74,387.3c-2.1,0-3.9-1.6-4-3.8c-0.2-3.3-0.4-20.7,13.5-33.3c11.6-10.4,25-10.8,30.3-10.5
			c2.2,0.1,3.9,2,3.8,4.2c-0.1,2.2-2,3.9-4.2,3.8c-3.3-0.2-14.9-0.2-24.5,8.5c-11.2,10.2-11,24.2-10.9,26.9c0.1,2.2-1.6,4.1-3.8,4.2
			C74.2,387.3,74.1,387.3,74,387.3z"/>
	</g>
	<g id="XMLID_11_" class="st1">
		<path id="XMLID_134_" class="st3" d="M91,386.3c-2.1,0-3.9-1.6-4-3.8c-0.1-2-0.3-12.2,7.9-19.6c6.8-6.1,14.7-6.4,17.8-6.2
			c2.2,0.1,3.9,2,3.8,4.2c-0.1,2.2-2,3.9-4.2,3.8c-1.6-0.1-7.3-0.1-12,4.1c-5.5,5-5.4,11.8-5.3,13.2c0.1,2.2-1.6,4.1-3.8,4.2
			C91.1,386.3,91,386.3,91,386.3z"/>
	</g>
</g>
<g id="XMLID_7_">
	<g id="XMLID_80_">
		<g id="XMLID_91_">
			<g id="XMLID_142_">
				<path id="XMLID_117_" class="st2" d="M223.7,413.3c1.1-4.4,1.7-9.1,1.7-13.8c0-30.8-24.9-55.7-55.7-55.7
					c-22.8,0-42.3,13.7-51,33.3c-21.5,0.1-38.8,17.5-38.8,39c0,21.6,17.5,39,39,39h90.9c12.8,0,23.2-10.4,23.2-23.2
					C233,424.3,229.3,417.5,223.7,413.3z M121,439.3c-12.8,0-23.1-10.4-23.1-23.1c0-12.8,10.4-23.1,23.1-23.1
					c12.8,0,23.1,10.4,23.1,23.1C144.1,429,133.8,439.3,121,439.3z"/>
				<circle id="XMLID_116_" class="st5" cx="121" cy="416.2" r="23.1"/>
				<line id="XMLID_115_" class="st6" x1="156.6" y1="397.1" x2="209" y2="397.1"/>
				<line id="XMLID_114_" class="st6" x1="172.1" y1="393.3" x2="172.1" y2="400.9"/>
				<path id="XMLID_113_" class="st3" d="M200.4,437.6h-35c-2.8,0-5-2.2-5-5v-17.3c0-2.8,2.2-5,5-5h35c2.8,0,5,2.2,5,5v17.3
					C205.4,435.4,203.2,437.6,200.4,437.6z"/>
			</g>
			<g id="XMLID_144_">
				<g id="XMLID_147_">
					<path id="XMLID_149_" class="st3" d="M65.3,384.2c-2.1,0-3.9-1.6-4-3.8c-0.2-3.3-0.4-20.7,13.5-33.3
						c11.6-10.4,25-10.8,30.3-10.5c2.2,0.1,3.9,2,3.8,4.2c-0.1,2.2-2,3.9-4.2,3.8c-3.3-0.2-14.9-0.2-24.5,8.5
						c-11.2,10.2-11,24.2-10.9,26.9c0.1,2.2-1.6,4.1-3.8,4.2C65.5,384.2,65.4,384.2,65.3,384.2z"/>
				</g>
				<g id="XMLID_145_">
					<path id="XMLID_146_" class="st3" d="M82.3,383.2c-2.1,0-3.9-1.6-4-3.8c-0.1-2-0.3-12.2,7.9-19.6c6.8-6.1,14.7-6.4,17.8-6.2
						c2.2,0.1,3.9,2,3.8,4.2c-0.1,2.2-2,3.9-4.2,3.8c-1.6-0.1-7.3-0.1-12,4.1c-5.5,5-5.4,11.8-5.3,13.2c0.1,2.2-1.6,4.1-3.8,4.2
						C82.4,383.2,82.3,383.2,82.3,383.2z"/>
				</g>
			</g>
		</g>
		<g id="XMLID_84_">
			<g id="XMLID_98_">
				<path id="XMLID_110_" class="st3" d="M-116.2,348.8h16.5c4.6,0,8.2,1.3,10.5,3.7c2,2,3.1,4.9,3.1,8.3v0.1
					c0,5.8-3.2,9.5-7.8,11.2l8.8,12.9h-9.3l-7.8-11.6h-0.1h-6.1v11.6h-8V348.8z M-100.2,366.3c3.9,0,6.1-2.1,6.1-5.1v-0.1
					c0-3.4-2.4-5.2-6.3-5.2h-7.9v10.4H-100.2z"/>
				<path id="XMLID_107_" class="st3" d="M-66.5,348.5h7.3l15.5,36.4H-52l-3.3-8.1h-15.3l-3.3,8.1H-82L-66.5,348.5z M-58.1,369.8
					l-4.8-11.7l-4.8,11.7H-58.1z"/>
				<path id="XMLID_104_" class="st3" d="M-38.1,348.8H-24c11.4,0,19.2,7.8,19.2,18v0.1c0,10.2-7.9,18.1-19.2,18.1h-14.1V348.8z
					 M-24,377.8c6.5,0,10.9-4.4,10.9-10.8v-0.1c0-6.4-4.4-10.9-10.9-10.9h-6.1v21.8H-24z"/>
				<path id="XMLID_102_" class="st3" d="M2.7,348.8h8v36.2h-8V348.8z"/>
				<path id="XMLID_99_" class="st3" d="M18.1,367v-0.1c0-10.3,8.1-18.7,19.3-18.7s19.2,8.3,19.2,18.6v0.1
					c0,10.3-8.1,18.7-19.3,18.7S18.1,377.2,18.1,367z M48.2,367v-0.1c0-6.2-4.5-11.4-11-11.4s-10.9,5.1-10.9,11.3v0.1
					c0,6.2,4.5,11.4,11,11.4C43.8,378.2,48.2,373.2,48.2,367z"/>
			</g>
			<g id="XMLID_83_">
				<path id="XMLID_86_" class="st3" d="M-116,390.1h13.4v48.8h30.4v12.2H-116V390.1z"/>
				<path id="XMLID_88_" class="st3" d="M-61.4,390.1H-48v61h-13.4V390.1z"/>
				<path id="XMLID_90_" class="st3" d="M-18.5,402.5h-18.6v-12.4h50.6v12.4H-5.1v48.6h-13.4V402.5z"/>
				<path id="XMLID_93_" class="st3" d="M23.7,390.1h46V402H37.1v12.4h28.8v11.9H37.1v12.8h33.1v11.9H23.7V390.1z"/>
			</g>
		</g>
	</g>
</g>
</svg>
