<?xml version="1.0" encoding="utf-8"?>
<!-- Generator: Adobe Illustrator 19.0.0, SVG Export Plug-In . SVG Version: 6.00 Build 0)  -->
<svg version="1.1" id="Layer_1" xmlns="http://www.w3.org/2000/svg" xmlns:xlink="http://www.w3.org/1999/xlink" x="0px" y="0px"
	 viewBox="0 0 256 256" style="enable-background:new 0 0 256 256;" xml:space="preserve">
<style type="text/css">
	.st0{fill:#808285;}
</style>
<g id="XMLID_17_">
	<g id="XMLID_19_">
		<path id="XMLID_3_" class="st0" d="M113.1,226.2c-29,0-58-11-80-33.1C-11,149-11,77.2,33.1,33.1C77.2-11,149-11,193.1,33.1l0,0
			c44.1,44.1,44.1,115.9,0,160C171.1,215.2,142.1,226.2,113.1,226.2z M113.1,32.3C92.4,32.3,71.7,40.2,56,56
			c-31.5,31.5-31.5,82.8,0,114.3c31.5,31.5,82.8,31.5,114.3,0c31.5-31.5,31.5-82.8,0-114.3l0,0C154.5,40.2,133.8,32.3,113.1,32.3z"
			/>
	</g>
	<g id="XMLID_18_">
		
			<rect id="XMLID_2_" x="168.7" y="197" transform="matrix(0.7071 0.7071 -0.7071 0.7071 213.1368 -88.2842)" class="st0" width="88.9" height="32.3"/>
	</g>
</g>
</svg>
