<?xml version="1.0" encoding="utf-8"?>
<!-- Generator: Adobe Illustrator 19.0.0, SVG Export Plug-In . SVG Version: 6.00 Build 0)  -->
<svg version="1.1" id="Layer_1" xmlns="http://www.w3.org/2000/svg" xmlns:xlink="http://www.w3.org/1999/xlink" x="0px" y="0px"
	 viewBox="0 0 100 100" style="enable-background:new 0 0 100 100;" xml:space="preserve">
<g>
	<path d="M40.9,10.7c-1.1,0-2.1,0.4-2.9,1.2L16.2,33.7H-0.8c-1.1,0-2.1,0.4-2.9,1.2S-5,36.7-5,37.8v25c0,1.1,0.4,2.1,1.2,2.9
		C-2.9,66.6-2,67-0.8,67h17.1L38,88.7c0.8,0.8,1.8,1.2,2.9,1.2s2.1-0.4,2.9-1.2c0.8-0.8,1.2-1.8,1.2-2.9V14.9c0-1.1-0.4-2.1-1.2-2.9
		C43,11.1,42,10.7,40.9,10.7L40.9,10.7z M40.9,10.7"/>
	<path d="M67.3,59.6c1.8-2.8,2.8-5.9,2.8-9.2c0-3.3-0.9-6.4-2.8-9.3C65.5,38.2,63,36.2,60,35c-0.4-0.2-1-0.3-1.6-0.3
		c-1.1,0-2.1,0.4-2.9,1.2c-0.8,0.8-1.2,1.8-1.2,3c0,0.9,0.3,1.7,0.8,2.3c0.5,0.6,1.2,1.2,1.9,1.6c0.7,0.5,1.5,1,2.2,1.5
		c0.7,0.5,1.4,1.3,1.9,2.3c0.5,1,0.8,2.2,0.8,3.7c0,1.5-0.3,2.7-0.8,3.7c-0.5,1-1.2,1.8-1.9,2.3c-0.7,0.5-1.5,1-2.2,1.5
		c-0.7,0.5-1.4,1-1.9,1.6c-0.5,0.6-0.8,1.4-0.8,2.3c0,1.2,0.4,2.2,1.2,3c0.8,0.8,1.8,1.2,2.9,1.2c0.6,0,1.2-0.1,1.6-0.3
		C63,64.4,65.5,62.4,67.3,59.6L67.3,59.6z M67.3,59.6"/>
	<path d="M81.2,68.8c3.7-5.6,5.5-11.8,5.5-18.4c0-6.6-1.8-12.8-5.5-18.4c-3.7-5.6-8.6-9.7-14.7-12.3c-0.6-0.2-1.1-0.3-1.7-0.3
		c-1.1,0-2.1,0.4-2.9,1.2c-0.8,0.8-1.2,1.8-1.2,2.9c0,1.7,0.8,3,2.5,3.8c2.4,1.3,4.1,2.2,5,2.9c3.2,2.3,5.7,5.3,7.5,8.8
		c1.8,3.5,2.7,7.3,2.7,11.3s-0.9,7.8-2.7,11.3c-1.8,3.5-4.3,6.5-7.5,8.8c-0.9,0.7-2.5,1.6-5,2.9c-1.7,0.9-2.5,2.2-2.5,3.8
		c0,1.1,0.4,2.1,1.2,2.9c0.8,0.8,1.8,1.2,3,1.2c0.5,0,1.1-0.1,1.6-0.3C72.6,78.5,77.5,74.4,81.2,68.8L81.2,68.8z M81.2,68.8"/>
	<path d="M95.2,22.8c-5.5-8.4-12.9-14.5-22-18.5C72.6,4.1,72,4,71.5,4c-1.1,0-2.1,0.4-2.9,1.2c-0.8,0.8-1.2,1.8-1.2,2.9
		c0,1.6,0.8,2.8,2.5,3.8c0.3,0.2,0.8,0.4,1.5,0.7c0.7,0.3,1.2,0.5,1.5,0.7c2,1.1,3.8,2.2,5.3,3.3c5.3,4,9.5,8.9,12.5,14.8
		c3,5.9,4.5,12.2,4.5,18.8c0,6.7-1.5,12.9-4.5,18.8c-3,5.9-7.2,10.8-12.5,14.8c-1.6,1.1-3.3,2.2-5.3,3.3c-0.3,0.2-0.8,0.4-1.5,0.7
		c-0.7,0.3-1.2,0.5-1.5,0.7c-1.7,1-2.5,2.3-2.5,3.8c0,1.1,0.4,2.1,1.2,2.9c0.8,0.8,1.8,1.2,2.9,1.2c0.6,0,1.1-0.1,1.7-0.3
		c9.2-4,16.5-10.1,22-18.5c5.5-8.4,8.3-17.5,8.3-27.5C103.5,40.3,100.7,31.2,95.2,22.8L95.2,22.8z M95.2,22.8"/>
</g>
</svg>
